<?xml version="1.0" encoding="utf-8"?>
<!-- Generator: Adobe Illustrator 23.0.6, SVG Export Plug-In . SVG Version: 6.00 Build 0)  -->
<svg version="1.1" id="Level" xmlns="http://www.w3.org/2000/svg" xmlns:xlink="http://www.w3.org/1999/xlink" x="0px" y="0px"
	 width="300px" height="300px" viewBox="0 0 300 300" style="enable-background:new 0 0 300 300;" xml:space="preserve">
<style type="text/css">
	.st0{fill:#39B54A;}
	.st1{fill:#FF0000;}
</style>
<g>
	<rect x="168" y="69" class="st0" width="2" height="7"/>
	<rect x="168" y="56" class="st0" width="2" height="7"/>
	<rect x="168" y="56" class="st0" width="37" height="2"/>
	<rect x="203" y="56" class="st0" width="2" height="20"/>
	<rect x="168" y="74" class="st0" width="37" height="2"/>
	<polygon class="st1" points="168,56 168,63 170,63 170,58 203,58 203,74 170,74 170,69 168,69 168,76 205,76 205,56 	"/>
</g>
<g>
	<rect x="202" y="85" class="st0" width="2" height="18"/>
	<rect x="163" y="85" class="st0" width="2" height="18"/>
	<rect x="175" y="101" class="st0" width="29" height="2"/>
	<rect x="163" y="85" class="st0" width="34" height="2"/>
	<rect x="163" y="101" class="st0" width="6" height="2"/>
	<polygon class="st1" points="175,101 175,103 204,103 204,85 202,85 202,101 	"/>
	<polygon class="st1" points="169,103 169,101 165,101 165,87 197,87 197,85 163,85 163,103 	"/>
</g>
<g>
	<rect x="74" y="201" class="st0" width="18" height="2"/>
	<rect x="74" y="230" class="st0" width="18" height="2"/>
	<rect x="90" y="201" class="st0" width="2" height="31"/>
	<rect x="74" y="220" class="st0" width="2" height="12"/>
	<rect x="74" y="201" class="st0" width="2" height="12"/>
	<polygon class="st1" points="92,201 74,201 74,213 76,213 76,203 90,203 90,230 76,230 76,220 74,220 74,232 92,232 	"/>
</g>
<g>
	<rect x="120" y="243" class="st0" width="2" height="34"/>
	<rect x="75" y="243" class="st0" width="2" height="34"/>
	<rect x="93" y="275" class="st0" width="29" height="2"/>
	<rect x="75" y="243" class="st0" width="38" height="2"/>
	<rect x="75" y="275" class="st0" width="6" height="2"/>
	<polygon class="st1" points="120,243 120,275 93,275 93,277 122,277 122,243 	"/>
	<polygon class="st1" points="77,245 113,245 113,243 75,243 75,277 81,277 81,275 77,275 	"/>
</g>
<g>
	<rect x="30" y="272" class="st0" width="34" height="2"/>
	<rect x="30" y="227" class="st0" width="34" height="2"/>
	<rect x="30" y="245" class="st0" width="2" height="29"/>
	<rect x="62" y="227" class="st0" width="2" height="38"/>
	<rect x="30" y="227" class="st0" width="2" height="6"/>
	<polygon class="st1" points="64,272 32,272 32,245 30,245 30,274 64,274 	"/>
	<polygon class="st1" points="62,229 62,265 64,265 64,227 30,227 30,233 32,233 32,229 	"/>
</g>
<g>
	<rect x="31" y="122" class="st0" width="2" height="29"/>
	<rect x="60" y="122" class="st0" width="2" height="29"/>
	<rect x="31" y="122" class="st0" width="31" height="2"/>
	<rect x="50" y="149" class="st0" width="12" height="2"/>
	<rect x="31" y="149" class="st0" width="12" height="2"/>
	<polygon class="st1" points="31,122 31,151 43,151 43,149 33,149 33,124 60,124 60,149 50,149 50,151 62,151 62,122 	"/>
</g>
<g>
	<rect x="207" y="257.5" class="st0" width="2" height="29"/>
	<rect x="236" y="257.5" class="st0" width="2" height="29"/>
	<rect x="207" y="257.5" class="st0" width="31" height="2"/>
	<rect x="226" y="284.5" class="st0" width="12" height="2"/>
	<rect x="207" y="284.5" class="st0" width="12" height="2"/>
	<polygon class="st1" points="207,257.5 207,286.5 219,286.5 219,284.5 209,284.5 209,259.5 236,259.5 236,284.5 226,284.5 
		226,286.5 238,286.5 238,257.5 	"/>
</g>
<g>
	<rect x="72" y="122" class="st0" width="2" height="18"/>
	<rect x="111" y="122" class="st0" width="2" height="18"/>
	<rect x="72" y="122" class="st0" width="29" height="2"/>
	<rect x="79" y="138" class="st0" width="34" height="2"/>
	<rect x="107" y="122" class="st0" width="6" height="2"/>
	<polygon class="st1" points="101,124 101,122 72,122 72,140 74,140 74,124 	"/>
	<polygon class="st1" points="107,122 107,124 111,124 111,138 79,138 79,140 113,140 113,122 	"/>
</g>
<g>
	<rect x="275" y="144" class="st0" width="18" height="2"/>
	<rect x="275" y="183" class="st0" width="18" height="2"/>
	<rect x="291" y="144" class="st0" width="2" height="41"/>
	<rect x="275" y="151" class="st0" width="2" height="34"/>
	<polygon class="st1" points="275,144 275,146 291,146 291,183 277,183 277,151 275,151 275,185 293,185 293,144 	"/>
</g>
<g>
	<rect x="288" y="19" class="st0" width="2" height="29"/>
	<rect x="259" y="19" class="st0" width="2" height="29"/>
	<rect x="259" y="46" class="st0" width="31" height="2"/>
	<rect x="259" y="19" class="st0" width="12" height="2"/>
	<rect x="278" y="19" class="st0" width="12" height="2"/>
	<polygon class="st1" points="290,48 290,19 278,19 278,21 288,21 288,46 261,46 261,21 271,21 271,19 259,19 259,48 	"/>
</g>
<g>
	<rect x="237.5" y="191.5" class="st0" width="2" height="18"/>
	<rect x="198.5" y="191.5" class="st0" width="2" height="18"/>
	<rect x="210.5" y="207.5" class="st0" width="29" height="2"/>
	<rect x="198.5" y="191.5" class="st0" width="34" height="2"/>
	<rect x="198.5" y="207.5" class="st0" width="6" height="2"/>
	<polygon class="st1" points="210.5,207.5 210.5,209.5 239.5,209.5 239.5,191.5 237.5,191.5 237.5,207.5 	"/>
	<polygon class="st1" points="204.5,209.5 204.5,207.5 200.5,207.5 200.5,193.5 232.5,193.5 232.5,191.5 198.5,191.5 198.5,209.5 	
		"/>
</g>
<g>
	<rect x="75" y="18" class="st0" width="2" height="18"/>
	<rect x="65" y="34" class="st0" width="12" height="2"/>
	<rect x="48" y="34" class="st0" width="12" height="2"/>
	<rect x="48" y="18" class="st0" width="2" height="18"/>
	<rect x="48" y="18" class="st0" width="12" height="2"/>
	<rect x="65" y="18" class="st0" width="12" height="2"/>
	<polygon class="st1" points="48,18 48,36 60,36 60,34 50,34 50,20 60,20 60,18 	"/>
	<polygon class="st1" points="65,18 65,20 75,20 75,34 65,34 65,36 77,36 77,18 	"/>
</g>
<g>
	<rect x="8" y="7" class="st0" width="2" height="29"/>
	<rect x="8" y="7" class="st0" width="22" height="2"/>
	<rect x="36" y="7" class="st0" width="3" height="2"/>
	<rect x="37" y="7" class="st0" width="2" height="29"/>
	<rect x="23" y="34" class="st0" width="16" height="2"/>
	<rect x="8" y="34" class="st0" width="9" height="2"/>
	<polygon class="st1" points="10,9 30,9 30,7 8,7 8,36 17,36 17,34 10,34 	"/>
	<polygon class="st1" points="36,7 36,9 37,9 37,34 23,34 23,36 39,36 39,7 	"/>
</g>
<g>
	<rect x="249" y="234" class="st0" width="7" height="2"/>
	<rect x="262" y="234" class="st0" width="7" height="2"/>
	<rect x="267" y="234" class="st0" width="2" height="59"/>
	<rect x="249" y="291" class="st0" width="20" height="2"/>
	<rect x="249" y="234" class="st0" width="2" height="59"/>
	<polygon class="st1" points="269,234 262,234 262,236 267,236 267,291 251,291 251,236 256,236 256,234 249,234 249,293 269,293 	
		"/>
</g>
<g>
	<rect x="217" y="218" class="st0" width="18" height="2"/>
	<rect x="217" y="247" class="st0" width="18" height="2"/>
	<rect x="233" y="218" class="st0" width="2" height="31"/>
	<rect x="217" y="237" class="st0" width="2" height="12"/>
	<rect x="217" y="218" class="st0" width="2" height="12"/>
	<polygon class="st1" points="235,218 217,218 217,230 219,230 219,220 233,220 233,247 219,247 219,237 217,237 217,249 235,249 	
		"/>
</g>
<g>
	<rect x="27" y="44" class="st0" width="29" height="2"/>
	<rect x="27" y="73" class="st0" width="29" height="2"/>
	<rect x="54" y="44" class="st0" width="2" height="31"/>
	<rect x="27" y="63" class="st0" width="2" height="12"/>
	<rect x="27" y="44" class="st0" width="2" height="12"/>
	<polygon class="st1" points="56,44 27,44 27,56 29,56 29,46 54,46 54,73 29,73 29,63 27,63 27,75 56,75 	"/>
</g>
</svg>
