<?xml version="1.0" encoding="utf-8"?>
<!-- Generator: Adobe Illustrator 16.0.0, SVG Export Plug-In . SVG Version: 6.00 Build 0)  -->
<!DOCTYPE svg PUBLIC "-//W3C//DTD SVG 1.1//EN" "http://www.w3.org/Graphics/SVG/1.1/DTD/svg11.dtd">
<svg version="1.1" id="Level" xmlns="http://www.w3.org/2000/svg" xmlns:xlink="http://www.w3.org/1999/xlink" x="0px" y="0px"
	 width="300px" height="300px" viewBox="0 0 300 300" enable-background="new 0 0 300 300" xml:space="preserve">
<g>
	<rect x="56" y="158" fill="#39B54A" width="2" height="18"/>
	<rect x="17" y="158" fill="#39B54A" width="2" height="18"/>
	<rect x="29" y="174" fill="#39B54A" width="29" height="2"/>
	<rect x="17" y="158" fill="#39B54A" width="34" height="2"/>
	<rect x="17" y="174" fill="#39B54A" width="6" height="2"/>
	<polygon fill="#FF0000" points="29,174 29,176 58,176 58,158 56,158 56,174 	"/>
	<polygon fill="#FF0000" points="23,176 23,174 19,174 19,160 51,160 51,158 17,158 17,176 	"/>
</g>
<g>
	<rect x="21" y="129" fill="#39B54A" width="2" height="18"/>
	<rect x="50" y="129" fill="#39B54A" width="2" height="18"/>
	<rect x="21" y="129" fill="#39B54A" width="31" height="2"/>
	<rect x="40" y="145" fill="#39B54A" width="12" height="2"/>
	<rect x="21" y="145" fill="#39B54A" width="12" height="2"/>
	<polygon fill="#FF0000" points="21,129 21,147 33,147 33,145 23,145 23,131 50,131 50,145 40,145 40,147 52,147 52,129 	"/>
</g>
<g>
	<rect x="272" y="132" fill="#39B54A" width="2" height="18"/>
	<rect x="243" y="132" fill="#39B54A" width="2" height="18"/>
	<rect x="243" y="148" fill="#39B54A" width="31" height="2"/>
	<rect x="243" y="132" fill="#39B54A" width="12" height="2"/>
	<rect x="262" y="132" fill="#39B54A" width="12" height="2"/>
	<polygon fill="#FF0000" points="274,150 274,132 262,132 262,134 272,134 272,148 245,148 245,134 255,134 255,132 243,132 
		243,150 	"/>
</g>
<g>
	<rect x="161" y="140" fill="#39B54A" width="18" height="2"/>
	<rect x="161" y="111" fill="#39B54A" width="18" height="2"/>
	<rect x="161" y="111" fill="#39B54A" width="2" height="31"/>
	<rect x="177" y="111" fill="#39B54A" width="2" height="12"/>
	<rect x="177" y="130" fill="#39B54A" width="2" height="12"/>
	<polygon fill="#FF0000" points="161,142 179,142 179,130 177,130 177,140 163,140 163,113 177,113 177,123 179,123 179,111 
		161,111 	"/>
</g>
<g>
	<rect x="54" y="72" fill="#39B54A" width="2" height="18"/>
	<rect x="25" y="72" fill="#39B54A" width="2" height="18"/>
	<rect x="25" y="88" fill="#39B54A" width="31" height="2"/>
	<rect x="25" y="72" fill="#39B54A" width="12" height="2"/>
	<rect x="44" y="72" fill="#39B54A" width="12" height="2"/>
	<polygon fill="#FF0000" points="56,90 56,72 44,72 44,74 54,74 54,88 27,88 27,74 37,74 37,72 25,72 25,90 	"/>
</g>
<g>
	<rect x="245" y="106" fill="#39B54A" width="2" height="18"/>
	<rect x="274" y="106" fill="#39B54A" width="2" height="18"/>
	<rect x="245" y="106" fill="#39B54A" width="31" height="2"/>
	<rect x="264" y="122" fill="#39B54A" width="12" height="2"/>
	<rect x="245" y="122" fill="#39B54A" width="12" height="2"/>
	<polygon fill="#FF0000" points="245,106 245,124 257,124 257,122 247,122 247,108 274,108 274,122 264,122 264,124 276,124 
		276,106 	"/>
</g>
<g>
	<rect x="17" y="113" fill="#39B54A" width="2" height="7"/>
	<rect x="17" y="100" fill="#39B54A" width="2" height="7"/>
	<rect x="17" y="100" fill="#39B54A" width="37" height="2"/>
	<rect x="52" y="100" fill="#39B54A" width="2" height="20"/>
	<rect x="17" y="118" fill="#39B54A" width="37" height="2"/>
	<polygon fill="#FF0000" points="17,100 17,107 19,107 19,102 52,102 52,118 19,118 19,113 17,113 17,120 54,120 54,100 	"/>
</g>
<g>
	<rect x="195" y="11" fill="#39B54A" width="2" height="34"/>
	<rect x="195" y="4" fill="#39B54A" width="2" height="3"/>
	<rect x="195" y="4" fill="#39B54A" width="18" height="2"/>
	<rect x="211" y="4" fill="#39B54A" width="2" height="30"/>
	<rect x="211" y="39" fill="#39B54A" width="2" height="6"/>
	<rect x="195" y="43" fill="#39B54A" width="18" height="2"/>
	<polygon fill="#FF0000" points="195,4 195,7 197,7 197,6 211,6 211,34 213,34 213,4 	"/>
	<polygon fill="#FF0000" points="211,43 197,43 197,11 195,11 195,45 213,45 213,39 211,39 	"/>
</g>
<g>
	<rect x="73" y="32" fill="#39B54A" width="2" height="18"/>
	<rect x="102" y="32" fill="#39B54A" width="2" height="18"/>
	<rect x="73" y="32" fill="#39B54A" width="31" height="2"/>
	<rect x="92" y="48" fill="#39B54A" width="12" height="2"/>
	<rect x="73" y="48" fill="#39B54A" width="12" height="2"/>
	<polygon fill="#FF0000" points="73,32 73,50 85,50 85,48 75,48 75,34 102,34 102,48 92,48 92,50 104,50 104,32 	"/>
</g>
<g>
	<rect x="108" y="70" fill="#39B54A" width="2" height="18"/>
	<rect x="98" y="86" fill="#39B54A" width="12" height="2"/>
	<rect x="81" y="86" fill="#39B54A" width="12" height="2"/>
	<rect x="81" y="70" fill="#39B54A" width="2" height="18"/>
	<rect x="81" y="70" fill="#39B54A" width="12" height="2"/>
	<rect x="98" y="70" fill="#39B54A" width="12" height="2"/>
	<polygon fill="#FF0000" points="81,70 81,88 93,88 93,86 83,86 83,72 93,72 93,70 	"/>
	<polygon fill="#FF0000" points="98,70 98,72 108,72 108,86 98,86 98,88 110,88 110,70 	"/>
</g>
<g>
	<rect x="217" y="70" fill="#39B54A" width="2" height="18"/>
	<rect x="178" y="70" fill="#39B54A" width="2" height="18"/>
	<rect x="178" y="86" fill="#39B54A" width="41" height="2"/>
	<rect x="178" y="70" fill="#39B54A" width="34" height="2"/>
	<polygon fill="#FF0000" points="219,70 217,70 217,86 180,86 180,72 212,72 212,70 178,70 178,88 219,88 	"/>
</g>
<g>
	<rect x="157" y="77" fill="#39B54A" width="2" height="18"/>
	<rect x="118" y="77" fill="#39B54A" width="2" height="18"/>
	<rect x="130" y="93" fill="#39B54A" width="29" height="2"/>
	<rect x="118" y="77" fill="#39B54A" width="34" height="2"/>
	<rect x="118" y="93" fill="#39B54A" width="6" height="2"/>
	<polygon fill="#FF0000" points="130,93 130,95 159,95 159,77 157,77 157,93 	"/>
	<polygon fill="#FF0000" points="124,95 124,93 120,93 120,79 152,79 152,77 118,77 118,95 	"/>
</g>
<g>
	<rect x="81" y="105" fill="#39B54A" width="18" height="2"/>
	<rect x="81" y="144" fill="#39B54A" width="18" height="2"/>
	<rect x="97" y="105" fill="#39B54A" width="2" height="29"/>
	<rect x="81" y="112" fill="#39B54A" width="2" height="34"/>
	<rect x="97" y="140" fill="#39B54A" width="2" height="6"/>
	<polygon fill="#FF0000" points="97,134 99,134 99,105 81,105 81,107 97,107 	"/>
	<polygon fill="#FF0000" points="99,140 97,140 97,144 83,144 83,112 81,112 81,146 99,146 	"/>
</g>
<g>
	<rect x="135" y="12" fill="#39B54A" width="2" height="18"/>
	<rect x="164" y="12" fill="#39B54A" width="2" height="18"/>
	<rect x="135" y="12" fill="#39B54A" width="31" height="2"/>
	<rect x="154" y="28" fill="#39B54A" width="12" height="2"/>
	<rect x="135" y="28" fill="#39B54A" width="12" height="2"/>
	<polygon fill="#FF0000" points="135,12 135,30 147,30 147,28 137,28 137,14 164,14 164,28 154,28 154,30 166,30 166,12 	"/>
</g>
<g>
	<rect x="146" y="105" fill="#39B54A" width="2" height="18"/>
	<rect x="136" y="121" fill="#39B54A" width="12" height="2"/>
	<rect x="119" y="121" fill="#39B54A" width="12" height="2"/>
	<rect x="119" y="105" fill="#39B54A" width="2" height="18"/>
	<rect x="119" y="105" fill="#39B54A" width="12" height="2"/>
	<rect x="136" y="105" fill="#39B54A" width="12" height="2"/>
	<polygon fill="#FF0000" points="119,105 119,123 131,123 131,121 121,121 121,107 131,107 131,105 	"/>
	<polygon fill="#FF0000" points="136,105 136,107 146,107 146,121 136,121 136,123 148,123 148,105 	"/>
</g>
<g>
	<rect x="162" y="181" fill="#39B54A" width="18" height="2"/>
	<rect x="162" y="171" fill="#39B54A" width="2" height="12"/>
	<rect x="162" y="154" fill="#39B54A" width="2" height="12"/>
	<rect x="162" y="154" fill="#39B54A" width="18" height="2"/>
	<rect x="178" y="154" fill="#39B54A" width="2" height="12"/>
	<rect x="178" y="171" fill="#39B54A" width="2" height="12"/>
	<polygon fill="#FF0000" points="180,154 162,154 162,166 164,166 164,156 178,156 178,166 180,166 	"/>
	<polygon fill="#FF0000" points="180,171 178,171 178,181 164,181 164,171 162,171 162,183 180,183 	"/>
</g>
<g>
	<rect x="8" y="8" fill="#39B54A" width="18" height="2"/>
	<rect x="24" y="8" fill="#39B54A" width="2" height="12"/>
	<rect x="24" y="25" fill="#39B54A" width="2" height="12"/>
	<rect x="8" y="35" fill="#39B54A" width="18" height="2"/>
	<rect x="8" y="25" fill="#39B54A" width="2" height="12"/>
	<rect x="8" y="8" fill="#39B54A" width="2" height="12"/>
	<polygon fill="#FF0000" points="8,37 26,37 26,25 24,25 24,35 10,35 10,25 8,25 	"/>
	<polygon fill="#FF0000" points="8,20 10,20 10,10 24,10 24,20 26,20 26,8 8,8 	"/>
</g>
<g>
	<rect x="90" y="214" fill="#39B54A" width="18" height="2"/>
	<rect x="90" y="253" fill="#39B54A" width="18" height="2"/>
	<rect x="106" y="214" fill="#39B54A" width="2" height="41"/>
	<rect x="90" y="228" fill="#39B54A" width="2" height="27"/>
	<rect x="90" y="214" fill="#39B54A" width="2" height="9"/>
	<polygon fill="#FF0000" points="90,214 90,223 92,223 92,216 106,216 106,253 92,253 92,228 90,228 90,255 108,255 108,214 	"/>
</g>
<g>
	<rect x="241" y="280" fill="#39B54A" width="18" height="2"/>
	<rect x="241" y="241" fill="#39B54A" width="18" height="2"/>
	<rect x="241" y="241" fill="#39B54A" width="2" height="41"/>
	<rect x="257" y="241" fill="#39B54A" width="2" height="27"/>
	<rect x="257" y="273" fill="#39B54A" width="2" height="9"/>
	<polygon fill="#FF0000" points="259,282 259,273 257,273 257,280 243,280 243,243 257,243 257,268 259,268 259,241 241,241 
		241,282 	"/>
</g>
<g>
	<rect x="81" y="156" fill="#39B54A" width="18" height="2"/>
	<rect x="81" y="195" fill="#39B54A" width="18" height="2"/>
	<rect x="97" y="156" fill="#39B54A" width="2" height="41"/>
	<rect x="81" y="170" fill="#39B54A" width="2" height="27"/>
	<rect x="81" y="156" fill="#39B54A" width="2" height="9"/>
	<polygon fill="#FF0000" points="81,156 81,165 83,165 83,158 97,158 97,195 83,195 83,170 81,170 81,197 99,197 99,156 	"/>
</g>
<g>
	<rect x="35" y="216" fill="#39B54A" width="18" height="2"/>
	<rect x="35" y="255" fill="#39B54A" width="18" height="2"/>
	<rect x="51" y="216" fill="#39B54A" width="2" height="29"/>
	<rect x="35" y="223" fill="#39B54A" width="2" height="34"/>
	<rect x="51" y="251" fill="#39B54A" width="2" height="6"/>
	<polygon fill="#FF0000" points="51,245 53,245 53,216 35,216 35,218 51,218 	"/>
	<polygon fill="#FF0000" points="53,251 51,251 51,255 37,255 37,223 35,223 35,257 53,257 	"/>
</g>
<g>
	<rect x="188" y="212" fill="#39B54A" width="2" height="7"/>
	<rect x="188" y="225" fill="#39B54A" width="2" height="7"/>
	<rect x="153" y="230" fill="#39B54A" width="37" height="2"/>
	<rect x="153" y="212" fill="#39B54A" width="2" height="20"/>
	<rect x="153" y="212" fill="#39B54A" width="37" height="2"/>
	<polygon fill="#FF0000" points="190,232 190,225 188,225 188,230 155,230 155,214 188,214 188,219 190,219 190,212 153,212 
		153,232 	"/>
</g>
<g>
	<rect x="148" y="179" fill="#39B54A" width="2" height="18"/>
	<rect x="109" y="179" fill="#39B54A" width="2" height="18"/>
	<rect x="121" y="195" fill="#39B54A" width="29" height="2"/>
	<rect x="109" y="179" fill="#39B54A" width="34" height="2"/>
	<rect x="109" y="195" fill="#39B54A" width="6" height="2"/>
	<polygon fill="#FF0000" points="121,195 121,197 150,197 150,179 148,179 148,195 	"/>
	<polygon fill="#FF0000" points="115,197 115,195 111,195 111,181 143,181 143,179 109,179 109,197 	"/>
</g>
<g>
	<rect x="37" y="264" fill="#39B54A" width="18" height="2"/>
	<rect x="37" y="293" fill="#39B54A" width="18" height="2"/>
	<rect x="53" y="264" fill="#39B54A" width="2" height="31"/>
	<rect x="37" y="283" fill="#39B54A" width="2" height="12"/>
	<rect x="37" y="264" fill="#39B54A" width="2" height="12"/>
	<polygon fill="#FF0000" points="55,264 37,264 37,276 39,276 39,266 53,266 53,293 39,293 39,283 37,283 37,295 55,295 	"/>
</g>
<g>
	<rect x="232" y="80" fill="#39B54A" width="2" height="18"/>
	<rect x="271" y="80" fill="#39B54A" width="2" height="18"/>
	<rect x="232" y="80" fill="#39B54A" width="29" height="2"/>
	<rect x="239" y="96" fill="#39B54A" width="34" height="2"/>
	<rect x="267" y="80" fill="#39B54A" width="6" height="2"/>
	<polygon fill="#FF0000" points="261,82 261,80 232,80 232,98 234,98 234,82 	"/>
	<polygon fill="#FF0000" points="267,80 267,82 271,82 271,96 239,96 239,98 273,98 273,80 	"/>
</g>
<g>
	<rect x="153" y="239" fill="#39B54A" width="18" height="2"/>
	<rect x="153" y="278" fill="#39B54A" width="18" height="2"/>
	<rect x="169" y="239" fill="#39B54A" width="2" height="29"/>
	<rect x="153" y="246" fill="#39B54A" width="2" height="34"/>
	<rect x="169" y="274" fill="#39B54A" width="2" height="6"/>
	<polygon fill="#FF0000" points="169,268 171,268 171,239 153,239 153,241 169,241 	"/>
	<polygon fill="#FF0000" points="171,274 169,274 169,278 155,278 155,246 153,246 153,280 171,280 	"/>
</g>
<g>
	<rect x="199" y="225" fill="#39B54A" width="2" height="7"/>
	<rect x="199" y="212" fill="#39B54A" width="2" height="7"/>
	<rect x="199" y="212" fill="#39B54A" width="59" height="2"/>
	<rect x="256" y="212" fill="#39B54A" width="2" height="20"/>
	<rect x="199" y="230" fill="#39B54A" width="59" height="2"/>
	<polygon fill="#FF0000" points="199,212 199,219 201,219 201,214 256,214 256,230 201,230 201,225 199,225 199,232 258,232 
		258,212 	"/>
</g>
</svg>
