<?xml version="1.0" encoding="utf-8"?>
<!-- Generator: Adobe Illustrator 16.0.0, SVG Export Plug-In . SVG Version: 6.00 Build 0)  -->
<!DOCTYPE svg PUBLIC "-//W3C//DTD SVG 1.1//EN" "http://www.w3.org/Graphics/SVG/1.1/DTD/svg11.dtd">
<svg version="1.1" id="Level" xmlns="http://www.w3.org/2000/svg" xmlns:xlink="http://www.w3.org/1999/xlink" x="0px" y="0px"
	 width="300px" height="300px" viewBox="0 0 300 300" enable-background="new 0 0 300 300" xml:space="preserve">
<g>
	<rect x="81" y="93" fill="#39B54A" width="2" height="7"/>
	<rect x="81" y="80" fill="#39B54A" width="2" height="7"/>
	<rect x="81" y="80" fill="#39B54A" width="37" height="2"/>
	<rect x="116" y="80" fill="#39B54A" width="2" height="20"/>
	<rect x="81" y="98" fill="#39B54A" width="37" height="2"/>
	<polygon fill="#FF0000" points="81,80 81,87 83,87 83,82 116,82 116,98 83,98 83,93 81,93 81,100 118,100 118,80 	"/>
</g>
<g>
	<rect x="118" y="111" fill="#39B54A" width="2" height="18"/>
	<rect x="79" y="111" fill="#39B54A" width="2" height="18"/>
	<rect x="91" y="127" fill="#39B54A" width="29" height="2"/>
	<rect x="79" y="111" fill="#39B54A" width="34" height="2"/>
	<rect x="79" y="127" fill="#39B54A" width="6" height="2"/>
	<polygon fill="#FF0000" points="91,127 91,129 120,129 120,111 118,111 118,127 	"/>
	<polygon fill="#FF0000" points="85,129 85,127 81,127 81,113 113,113 113,111 79,111 79,129 	"/>
</g>
<g>
	<rect x="82" y="138" fill="#39B54A" width="18" height="2"/>
	<rect x="82" y="167" fill="#39B54A" width="18" height="2"/>
	<rect x="98" y="138" fill="#39B54A" width="2" height="31"/>
	<rect x="82" y="157" fill="#39B54A" width="2" height="12"/>
	<rect x="82" y="138" fill="#39B54A" width="2" height="12"/>
	<polygon fill="#FF0000" points="100,138 82,138 82,150 84,150 84,140 98,140 98,167 84,167 84,157 82,157 82,169 100,169 	"/>
</g>
<g>
	<rect x="129" y="176" fill="#39B54A" width="2" height="34"/>
	<rect x="84" y="176" fill="#39B54A" width="2" height="34"/>
	<rect x="102" y="208" fill="#39B54A" width="29" height="2"/>
	<rect x="84" y="176" fill="#39B54A" width="38" height="2"/>
	<rect x="84" y="208" fill="#39B54A" width="6" height="2"/>
	<polygon fill="#FF0000" points="129,176 129,208 102,208 102,210 131,210 131,176 	"/>
	<polygon fill="#FF0000" points="86,178 122,178 122,176 84,176 84,210 90,210 90,208 86,208 	"/>
</g>
<g>
	<rect x="59.5" y="32.001" fill="#39B54A" width="2" height="34"/>
	<rect x="14.5" y="32.001" fill="#39B54A" width="2" height="34"/>
	<rect x="32.5" y="64.001" fill="#39B54A" width="29" height="2"/>
	<rect x="14.5" y="32.001" fill="#39B54A" width="38" height="2"/>
	<rect x="14.5" y="64.001" fill="#39B54A" width="6" height="2"/>
	<polygon fill="#FF0000" points="59.5,32.001 59.5,64.001 32.5,64.001 32.5,66.001 61.5,66.001 61.5,32.001 	"/>
	<polygon fill="#FF0000" points="16.5,34.001 52.5,34.001 52.5,32.001 14.5,32.001 14.5,66.001 20.5,66.001 20.5,64.001 
		16.5,64.001 	"/>
</g>
<g>
	<rect x="35" y="275" fill="#39B54A" width="34" height="2"/>
	<rect x="35" y="230" fill="#39B54A" width="34" height="2"/>
	<rect x="35" y="248" fill="#39B54A" width="2" height="29"/>
	<rect x="67" y="230" fill="#39B54A" width="2" height="38"/>
	<rect x="35" y="230" fill="#39B54A" width="2" height="6"/>
	<polygon fill="#FF0000" points="69,275 37,275 37,248 35,248 35,277 69,277 	"/>
	<polygon fill="#FF0000" points="67,232 67,268 69,268 69,230 35,230 35,236 37,236 37,232 	"/>
</g>
<g>
	<rect x="13" y="181" fill="#39B54A" width="2" height="29"/>
	<rect x="42" y="181" fill="#39B54A" width="2" height="29"/>
	<rect x="13" y="181" fill="#39B54A" width="31" height="2"/>
	<rect x="32" y="208" fill="#39B54A" width="12" height="2"/>
	<rect x="13" y="208" fill="#39B54A" width="12" height="2"/>
	<polygon fill="#FF0000" points="13,181 13,210 25,210 25,208 15,208 15,183 42,183 42,208 32,208 32,210 44,210 44,181 	"/>
</g>
<g>
	<rect x="249.998" y="22" fill="#39B54A" width="1.999" height="29"/>
	<rect x="278.997" y="21.999" fill="#39B54A" width="2" height="29"/>
	<rect x="250" y="22.002" fill="#39B54A" width="30.998" height="2"/>
	<rect x="268.999" y="49.001" fill="#39B54A" width="12" height="2"/>
	<rect x="250" y="49.001" fill="#39B54A" width="12" height="2"/>
	<polygon fill="#FF0000" points="250,22 250,50.999 261.999,51 262,48.999 252,48.999 252,23.999 279,23.999 279,48.999 
		268.999,48.999 269,51 281,50.999 281,22 	"/>
</g>
<g>
	<rect x="109" y="232" fill="#39B54A" width="2" height="18"/>
	<rect x="148" y="232" fill="#39B54A" width="2" height="18"/>
	<rect x="109" y="232" fill="#39B54A" width="29" height="2"/>
	<rect x="116" y="248" fill="#39B54A" width="34" height="2"/>
	<rect x="144" y="232" fill="#39B54A" width="6" height="2"/>
	<polygon fill="#FF0000" points="138,234 138,232 109,232 109,250 111,250 111,234 	"/>
	<polygon fill="#FF0000" points="144,232 144,234 148,234 148,248 116,248 116,250 150,250 150,232 	"/>
</g>
<g>
	<rect x="201" y="232" fill="#39B54A" width="2" height="18"/>
	<rect x="162" y="232" fill="#39B54A" width="2" height="18"/>
	<rect x="162" y="248" fill="#39B54A" width="41" height="2"/>
	<rect x="162" y="232" fill="#39B54A" width="34" height="2"/>
	<polygon fill="#FF0000" points="203,232 201,232 201,248 164,248 164,234 196,234 196,232 162,232 162,250 203,250 	"/>
</g>
<g>
	<rect x="225" y="78" fill="#39B54A" width="2" height="29"/>
	<rect x="196" y="78" fill="#39B54A" width="2" height="29"/>
	<rect x="196" y="105" fill="#39B54A" width="31" height="2"/>
	<rect x="196" y="78" fill="#39B54A" width="12" height="2"/>
	<rect x="215" y="78" fill="#39B54A" width="12" height="2"/>
	<polygon fill="#FF0000" points="227,107 227,78 215,78 215,80 225,80 225,105 198,105 198,80 208,80 208,78 196,78 196,107 	"/>
</g>
<g>
	<rect x="225" y="119" fill="#39B54A" width="2" height="18"/>
	<rect x="186" y="119" fill="#39B54A" width="2" height="18"/>
	<rect x="198" y="135" fill="#39B54A" width="29" height="2"/>
	<rect x="186" y="119" fill="#39B54A" width="34" height="2"/>
	<rect x="186" y="135" fill="#39B54A" width="6" height="2"/>
	<polygon fill="#FF0000" points="198,135 198,137 227,137 227,119 225,119 225,135 	"/>
	<polygon fill="#FF0000" points="192,137 192,135 188,135 188,121 220,121 220,119 186,119 186,137 	"/>
</g>
<g>
	<rect x="168" y="157" fill="#39B54A" width="2" height="7"/>
	<rect x="168" y="144" fill="#39B54A" width="2" height="7"/>
	<rect x="168" y="144" fill="#39B54A" width="59" height="2"/>
	<rect x="225" y="144" fill="#39B54A" width="2" height="7"/>
	<rect x="225" y="157" fill="#39B54A" width="2" height="7"/>
	<rect x="168" y="162" fill="#39B54A" width="59" height="2"/>
	<polygon fill="#FF0000" points="168,144 168,151 170,151 170,146 225,146 225,151 227,151 227,144 	"/>
	<polygon fill="#FF0000" points="225,162 170,162 170,157 168,157 168,164 227,164 227,157 225,157 	"/>
</g>
<g>
	<rect x="162" y="20" fill="#39B54A" width="2" height="18"/>
	<rect x="201" y="20" fill="#39B54A" width="2" height="18"/>
	<rect x="162" y="20" fill="#39B54A" width="41" height="2"/>
	<rect x="176" y="36" fill="#39B54A" width="27" height="2"/>
	<rect x="162" y="36" fill="#39B54A" width="9" height="2"/>
	<polygon fill="#FF0000" points="162,38 171,38 171,36 164,36 164,22 201,22 201,36 176,36 176,38 203,38 203,20 162,20 	"/>
</g>
<g>
	<rect x="151" y="21" fill="#39B54A" width="2" height="18"/>
	<rect x="141" y="37" fill="#39B54A" width="12" height="2"/>
	<rect x="124" y="37" fill="#39B54A" width="12" height="2"/>
	<rect x="124" y="21" fill="#39B54A" width="2" height="18"/>
	<rect x="124" y="21" fill="#39B54A" width="12" height="2"/>
	<rect x="141" y="21" fill="#39B54A" width="12" height="2"/>
	<polygon fill="#FF0000" points="124,21 124,39 136,39 136,37 126,37 126,23 136,23 136,21 	"/>
	<polygon fill="#FF0000" points="141,21 141,23 151,23 151,37 141,37 141,39 153,39 153,21 	"/>
</g>
<g>
	<rect x="84" y="10" fill="#39B54A" width="2" height="29"/>
	<rect x="84" y="10" fill="#39B54A" width="22" height="2"/>
	<rect x="112" y="10" fill="#39B54A" width="3" height="2"/>
	<rect x="113" y="10" fill="#39B54A" width="2" height="29"/>
	<rect x="99" y="37" fill="#39B54A" width="16" height="2"/>
	<rect x="84" y="37" fill="#39B54A" width="9" height="2"/>
	<polygon fill="#FF0000" points="86,12 106,12 106,10 84,10 84,39 93,39 93,37 86,37 	"/>
	<polygon fill="#FF0000" points="112,10 112,12 113,12 113,37 99,37 99,39 115,39 115,10 	"/>
</g>
<g>
	<rect x="247" y="234" fill="#39B54A" width="7" height="2"/>
	<rect x="260" y="234" fill="#39B54A" width="7" height="2"/>
	<rect x="265" y="234" fill="#39B54A" width="2" height="59"/>
	<rect x="247" y="291" fill="#39B54A" width="20" height="2"/>
	<rect x="247" y="234" fill="#39B54A" width="2" height="59"/>
	<polygon fill="#FF0000" points="267,234 260,234 260,236 265,236 265,291 249,291 249,236 254,236 254,234 247,234 247,293 
		267,293 	"/>
</g>
</svg>
